HIERARCHY
ROOT Hips
{
	OFFSET 0.00000 0.00000 0.00000
	CHANNELS 6 Xposition Yposition Zposition Zrotation Yrotation Xrotation 
	JOINT LHipJoint
	{
		OFFSET 0 0 0
		CHANNELS 3 Zrotation Yrotation Xrotation
		JOINT LeftHip
		{
			OFFSET 1.58895 -1.83665 0.71753
			CHANNELS 3 Zrotation Yrotation Xrotation
			JOINT LeftKnee
			{
				OFFSET 2.50528 -6.88321 0.00000
				CHANNELS 3 Zrotation Yrotation Xrotation
				JOINT LeftAnkle
				{
					OFFSET 2.63244 -7.23257 0.00000
					CHANNELS 3 Zrotation Yrotation Xrotation
					JOINT LeftToe
					{
						OFFSET 0.23691 -0.65090 1.72750
						CHANNELS 3 Zrotation Yrotation Xrotation
						End Site
						{
							OFFSET 0.00000 -0.00000 0.92561
						}
					}
				}
			}
		}
	}
	JOINT RHipJoint
	{
		OFFSET 0 0 0
		CHANNELS 3 Zrotation Yrotation Xrotation
		JOINT RightHip
		{
			OFFSET -1.51435 -1.83665 0.71753
			CHANNELS 3 Zrotation Yrotation Xrotation
			JOINT RightKnee
			{
				OFFSET -2.54551 -6.99375 0.00000
				CHANNELS 3 Zrotation Yrotation Xrotation
				JOINT RightAnkle
				{
					OFFSET -2.66027 -7.30903 0.00000
					CHANNELS 3 Zrotation Yrotation Xrotation
					JOINT RightToe
					{
						OFFSET -0.22981 -0.63138 2.03959
						CHANNELS 3 Zrotation Yrotation Xrotation
						End Site
						{
							OFFSET -0.00000 -0.00000 1.07060
						}
					}
				}
			}
		}
	}
	JOINT lowerback
	{
		OFFSET 0 0 0
		CHANNELS 3 Zrotation Yrotation Xrotation
		JOINT Chest
		{
			OFFSET -0.02651 1.86275 -0.11152
			CHANNELS 3 Zrotation Yrotation Xrotation
			JOINT Chest2
			{
				OFFSET 0.01019 1.86224 0.04087
				CHANNELS 3 Zrotation Yrotation Xrotation
				JOINT lowerneck
				{
					OFFSET 0 0 0
					CHANNELS 3 Zrotation Yrotation Xrotation
					JOINT Neck
					{
						OFFSET -0.01926 1.80512 0.08867
						CHANNELS 3 Zrotation Yrotation Xrotation
						JOINT Head
						{
							OFFSET 0.05516 1.76451 -0.38475
							CHANNELS 3 Zrotation Yrotation Xrotation
							End Site
							{
								OFFSET 0.01592 1.82587 -0.14001
							}
						}
					}
				}
				JOINT LeftCollar
				{
					OFFSET 0 0 0
					CHANNELS 3 Zrotation Yrotation Xrotation
					JOINT LeftShoulder
					{
						OFFSET 3.47116 1.51376 0.14491
CHANNELS 3 Zrotation Xrotation Yrotation
						JOINT LeftElbow
						{
OFFSET 0 -4.780950 0.000000
CHANNELS 3 Zrotation Xrotation Yrotation
							JOINT LeftWrist
							{
OFFSET 0 -3.586150 -0.000000
CHANNELS 3 Zrotation Xrotation Yrotation
								JOINT lhand
								{
									OFFSET 0 0 0
CHANNELS 3 Zrotation Xrotation Yrotation
									JOINT LFingers
									{
OFFSET 0 -0.659810 0.000000
CHANNELS 3 Zrotation Xrotation Yrotation
										End Site
										{
OFFSET 0 -0.531960 0.000000
										}
									}
								}
								JOINT LThumb
								{
OFFSET 0 0.000000 0.000000
CHANNELS 3 Zrotation Xrotation Yrotation
									End Site
									{
OFFSET 0 -0.540080 0.540080
									}
								}
							}
						}
					}
				}
				JOINT RightCollar
				{
					OFFSET 0 0 0
					CHANNELS 3 Zrotation Yrotation Xrotation
					JOINT RightShoulder
					{
						OFFSET -3.31725 1.61216 0.35156
CHANNELS 3 Zrotation Xrotation Yrotation
						JOINT RightElbow
						{
OFFSET 0 -4.489130 0.000000
CHANNELS 3 Zrotation Xrotation Yrotation
							JOINT RightWrist
							{
OFFSET 0 -3.705100 0.000000
CHANNELS 3 Zrotation Xrotation Yrotation
								JOINT rhand
								{
									OFFSET 0 0 0
CHANNELS 3 Zrotation Xrotation Yrotation
									JOINT RFingers
									{
OFFSET 0 -0.449140 0.000000
CHANNELS 3 Zrotation Xrotation Yrotation
										End Site
										{
OFFSET 0 -0.362110 0.000000
										}
									}
								}
								JOINT RThumb
								{
OFFSET 0 0.000000 0.000000
CHANNELS 3 Zrotation Xrotation Yrotation
									End Site
									{
OFFSET 0 -0.367630 0.367630
									}
								}
							}
						}
					}
				}
			}
		}
	}
}
MOTION
Frames: 9
Frame Time: 0.008333333333333333
-0.803000 18.709800 5.506400 -4.113200 -2.659700 0.954400 0.000000 0.000000 0.000000 -10.027400 -8.866000 -3.442400 1.496100 7.726600 21.886600 1.485300 4.588400 -25.072300 8.499900 -16.474900 -54.344000 0.000000 0.000000 0.000000 18.696300 0.625000 7.177500 0.000000 0.000000 -0.000000 -0.818300 -4.785700 -19.476000 -0.072600 1.738200 -4.782700 1.977900 0.532000 5.357500 1.233300 0.864600 0.225100 0.093300 0.412500 -2.762100 -0.715400 -0.474300 -13.735400 1.335900 -0.816200 22.111200 0.480700 -0.296200 9.224700 0.000000 0.000000 0.000000 -1.960900 9.730000 -31.945100 21.678300 -32.611600 6.411600 3.964600 6.017900 24.035500 0.000000 0.000000 0.000000 -7.125000 0.000000 0.000000 -15.546600 6.607400 -14.200800 0.000000 0.000000 0.000000 -0.990100 15.749200 28.371500 -24.297400 -35.477200 -7.878500 -8.475900 17.671600 28.356000 0.000000 0.000000 0.000000 7.125000 0.000000 -0.000000 24.181700 56.914800 -7.354700
-0.801682 18.710436 5.501456 -4.092933 -2.674623 0.949090 0.000000 0.000000 0.000000 -10.056834 -8.873195 -3.437953 1.493499 7.720069 21.866936 1.478671 4.651248 -25.056109 8.483696 -16.463776 -54.286863 0.000000 0.000000 0.000000 18.668644 0.644293 7.170486 0.000000 0.000000 0.000000 -0.815537 -4.807565 -19.462799 -0.075445 1.772357 -4.877037 1.979567 0.538450 5.395230 1.220960 0.873739 0.236419 0.078554 0.416869 -2.771241 -0.732767 -0.471290 -13.746643 1.373025 -0.816771 22.113751 0.496286 -0.293754 9.227951 0.000000 0.000000 0.000000 -1.980886 9.697837 -31.883183 21.632171 -32.558838 6.386750 4.008431 6.090904 23.985977 0.000000 0.000000 0.000000 -7.125000 0.000000 0.000000 -15.520873 6.651751 -14.161468 0.000000 0.000000 0.000000 -0.936593 15.760089 28.259862 -24.292683 -35.472194 -7.875758 -8.408796 17.746917 28.236036 0.000000 0.000000 0.000000 7.125000 0.000000 0.000000 24.163240 56.792319 -7.275957
-0.800882 18.711072 5.497622 -4.107842 -2.715600 0.956621 0.000000 0.000000 0.000000 -10.047823 -8.892765 -3.444870 1.495644 7.725306 21.882719 1.484391 4.701187 -25.126254 8.482099 -16.462639 -54.281139 0.000000 0.000000 0.000000 18.683945 0.692645 7.157317 0.000000 0.000000 0.000000 -0.815590 -4.817280 -19.469151 -0.074685 1.763292 -4.851957 2.008214 0.548663 5.397466 1.223898 0.888838 0.253883 0.064517 0.424283 -2.753934 -0.731481 -0.469405 -13.773190 1.369220 -0.813440 22.117682 0.495178 -0.292431 9.234223 0.000000 0.000000 0.000000 -2.001586 9.629288 -31.834440 21.571504 -32.489341 6.354136 4.035860 6.110716 24.031780 0.000000 0.000000 0.000000 -7.125000 0.000000 0.000000 -15.503732 6.605546 -14.159021 0.000000 0.000000 0.000000 -0.908652 15.726666 28.206544 -24.223808 -35.400011 -7.835822 -8.529323 17.899226 27.963841 0.000000 0.000000 0.000000 7.125000 0.000000 0.000000 23.851485 56.569927 -7.043543
-0.800047 18.711627 5.493769 -4.154056 -2.772610 0.981766 0.000000 0.000000 0.000000 -10.005162 -8.930277 -3.463650 1.497978 7.731135 21.900368 1.490594 4.753220 -25.201365 8.485782 -16.465182 -54.294227 0.000000 0.000000 0.000000 18.733236 0.763904 7.127697 0.000000 0.000000 0.000000 -0.814857 -4.822672 -19.465800 -0.070479 1.713217 -4.713722 2.058412 0.560645 5.366223 1.247519 0.907309 0.267176 0.059722 0.433323 -2.722132 -0.698976 -0.463890 -13.778349 1.299651 -0.796699 22.103948 0.467840 -0.289567 9.229796 0.000000 0.000000 0.000000 -2.043189 9.566819 -31.773678 21.508094 -32.416561 6.320109 4.027546 6.159008 24.101771 0.000000 0.000000 0.000000 -7.125000 0.000000 0.000000 -15.507870 6.538686 -14.183832 0.000000 0.000000 0.000000 -0.920468 15.723827 28.191475 -24.203963 -35.379245 -7.824363 -8.585596 17.944205 27.900233 0.000000 0.000000 0.000000 7.125000 0.000000 0.000000 23.751161 56.523674 -6.984172
-0.799291 18.711673 5.490217 -4.163873 -2.784880 1.002363 0.000000 0.000000 0.000000 -9.999780 -8.995834 -3.482725 1.500644 7.737606 21.919727 1.490750 4.789202 -25.221654 8.469189 -16.453765 -54.235680 0.000000 0.000000 0.000000 18.742115 0.787789 7.097594 0.000000 0.000000 0.000000 -0.812058 -4.830956 -19.443322 -0.069194 1.697537 -4.670531 2.078089 0.562989 5.329806 1.264815 0.910766 0.274533 0.066638 0.435111 -2.694022 -0.660472 -0.470749 -13.747859 1.203309 -0.792189 22.079987 0.428827 -0.294987 9.215126 0.000000 0.000000 0.000000 -2.077543 9.545220 -31.768723 21.487834 -32.393304 6.309230 3.943636 6.188507 24.119278 0.000000 0.000000 0.000000 -7.125000 0.000000 0.000000 -15.558242 6.528255 -14.236876 0.000000 0.000000 0.000000 -0.955517 15.729965 28.211511 -24.206519 -35.381883 -7.825811 -8.550615 17.915906 28.024062 0.000000 0.000000 0.000000 7.125000 0.000000 0.000000 23.872344 56.629129 -7.084950
-0.799344 18.711184 5.485785 -4.156460 -2.778141 0.999104 0.000000 0.000000 0.000000 -9.995421 -8.970577 -3.512206 1.500956 7.738375 21.922198 1.489308 4.745293 -25.187153 8.474138 -16.457149 -54.253109 0.000000 0.000000 0.000000 18.736557 0.783231 7.089481 0.000000 0.000000 0.000000 -0.811033 -4.824478 -19.428677 -0.066189 1.659520 -4.565566 2.076655 0.557457 5.360925 1.262502 0.904462 0.262787 0.065135 0.431677 -2.723655 -0.620373 -0.479573 -13.723276 1.154655 -0.802763 22.087957 0.404222 -0.301947 9.213021 0.000000 0.000000 0.000000 -2.064804 9.557477 -31.808510 21.492228 -32.398392 6.311564 3.925806 6.142856 24.053517 0.000000 0.000000 0.000000 -7.125000 0.000000 0.000000 -15.569733 6.593039 -14.228086 0.000000 0.000000 0.000000 -0.950905 15.730429 28.228510 -24.192108 -35.366747 -7.817509 -8.438633 17.863482 28.185822 0.000000 0.000000 0.000000 7.125000 0.000000 0.000000 24.097560 56.752998 -7.230868
-0.800043 18.710420 5.480696 -4.126400 -2.791921 0.971515 0.000000 0.000000 0.000000 -10.026392 -8.986289 -3.492175 1.500573 7.737547 21.919777 1.491398 4.742914 -25.201313 8.455237 -16.444064 -54.186164 0.000000 0.000000 0.000000 18.707263 0.792754 7.103842 0.000000 0.000000 0.000000 -0.813888 -4.797666 -19.440013 -0.060016 1.580365 -4.347318 2.049600 0.563609 5.421715 1.256110 0.912774 0.262039 0.072458 0.435864 -2.758713 -0.690808 -0.486845 -13.722217 1.248787 -0.818576 22.081368 0.446410 -0.304957 9.211389 0.000000 0.000000 0.000000 -2.055943 9.559869 -31.824779 21.503742 -32.411614 6.317764 3.986088 6.108965 24.011270 0.000000 0.000000 0.000000 -7.125000 0.000000 0.000000 -15.533984 6.629105 -14.181505 0.000000 0.000000 0.000000 -0.960428 15.730002 28.264647 -24.172610 -35.346230 -7.806167 -8.441344 17.869007 28.215702 0.000000 0.000000 0.000000 7.125000 0.000000 0.000000 24.116027 56.780553 -7.253283
-0.800300 18.710290 5.477038 -4.100103 -2.793843 0.955371 0.000000 0.000000 0.000000 -10.059911 -9.032760 -3.468242 1.500410 7.736948 21.918033 1.491957 4.778388 -25.225201 8.437871 -16.432090 -54.125089 0.000000 0.000000 0.000000 18.680460 0.793695 7.106990 0.000000 0.000000 0.000000 -0.813381 -4.793820 -19.432699 -0.059486 1.574211 -4.330413 2.018417 0.563776 5.439595 1.263420 0.911685 0.264862 0.097326 0.435709 -2.766419 -0.737382 -0.482280 -13.719404 1.286076 -0.809780 22.065904 0.468048 -0.300719 9.205809 0.000000 0.000000 0.000000 -2.077816 9.576225 -31.776782 21.554837 -32.470252 6.345197 3.936233 6.227767 24.002938 0.000000 0.000000 0.000000 -7.125000 0.000000 0.000000 -15.564127 6.640877 -14.207546 0.000000 0.000000 0.000000 -0.968243 15.729714 28.235058 -24.166457 -35.339766 -7.802643 -8.391895 17.860242 28.219848 0.000000 0.000000 0.000000 7.125000 0.000000 0.000000 24.168143 56.774185 -7.266501
-0.800065 18.710582 5.473893 -4.117700 -2.772035 0.948562 0.000000 0.000000 0.000000 -10.037206 -9.014796 -3.483826 1.500353 7.736924 21.917672 1.493587 4.757954 -25.226195 8.449239 -16.439889 -54.165132 0.000000 0.000000 0.000000 18.700272 0.772832 7.101107 0.000000 0.000000 0.000000 -0.812796 -4.797361 -19.429016 -0.058198 1.556789 -4.282202 2.025713 0.554357 5.431855 1.291393 0.900169 0.264861 0.123030 0.430099 -2.762590 -0.748081 -0.492830 -13.717119 1.275198 -0.819477 22.069824 0.464949 -0.307340 9.206847 0.000000 0.000000 0.000000 -2.115595 9.583001 -31.738186 21.599704 -32.521717 6.369314 3.864967 6.287997 23.967227 0.000000 0.000000 0.000000 -7.125000 0.000000 0.000000 -15.607515 6.680844 -14.237942 0.000000 0.000000 0.000000 -0.966358 15.722840 28.160016 -24.169386 -35.342857 -7.804267 -8.432326 17.907051 28.209858 0.000000 0.000000 0.000000 7.125000 0.000000 0.000000 24.120816 56.773410 -7.250560
